<mxfile host="app.diagrams.net" agent="Mozilla/5.0 (Macintosh; Intel Mac OS X 10_15_7) AppleWebKit/537.36 (KHTML, like Gecko) Chrome/128.0.0.0 Safari/537.36 Edg/128.0.0.0" version="24.7.16">
  <diagram name="Page-1" id="QmTFG7AX_VZ_8vDkwTz4">
    <mxGraphModel dx="899" dy="559" grid="1" gridSize="10" guides="1" tooltips="1" connect="1" arrows="1" fold="1" page="1" pageScale="1" pageWidth="827" pageHeight="1169" math="0" shadow="0">
      <root>
        <mxCell id="0" />
        <mxCell id="1" parent="0" />
        <mxCell id="VZrK6yZqh-CEWG65we2a-4" style="edgeStyle=orthogonalEdgeStyle;rounded=0;orthogonalLoop=1;jettySize=auto;html=1;" edge="1" parent="1" source="VZrK6yZqh-CEWG65we2a-3">
          <mxGeometry relative="1" as="geometry">
            <mxPoint x="330" y="150" as="targetPoint" />
          </mxGeometry>
        </mxCell>
        <mxCell id="VZrK6yZqh-CEWG65we2a-7" value="OnAfterCreate or OnAfterUpdate" style="edgeLabel;html=1;align=center;verticalAlign=middle;resizable=0;points=[];" vertex="1" connectable="0" parent="VZrK6yZqh-CEWG65we2a-4">
          <mxGeometry x="-0.0496" y="-1" relative="1" as="geometry">
            <mxPoint as="offset" />
          </mxGeometry>
        </mxCell>
        <mxCell id="VZrK6yZqh-CEWG65we2a-3" value="Start" style="ellipse;whiteSpace=wrap;html=1;" vertex="1" parent="1">
          <mxGeometry x="270" y="20" width="120" height="80" as="geometry" />
        </mxCell>
        <mxCell id="VZrK6yZqh-CEWG65we2a-9" style="edgeStyle=orthogonalEdgeStyle;rounded=0;orthogonalLoop=1;jettySize=auto;html=1;" edge="1" parent="1" source="VZrK6yZqh-CEWG65we2a-6">
          <mxGeometry relative="1" as="geometry">
            <mxPoint x="330" y="280" as="targetPoint" />
          </mxGeometry>
        </mxCell>
        <mxCell id="VZrK6yZqh-CEWG65we2a-10" value="Get Installed Product" style="edgeLabel;html=1;align=center;verticalAlign=middle;resizable=0;points=[];" vertex="1" connectable="0" parent="VZrK6yZqh-CEWG65we2a-9">
          <mxGeometry x="-0.0355" relative="1" as="geometry">
            <mxPoint as="offset" />
          </mxGeometry>
        </mxCell>
        <mxCell id="VZrK6yZqh-CEWG65we2a-6" value="Covered Product" style="rounded=0;whiteSpace=wrap;html=1;" vertex="1" parent="1">
          <mxGeometry x="270" y="150" width="120" height="60" as="geometry" />
        </mxCell>
        <mxCell id="VZrK6yZqh-CEWG65we2a-8" value="Covered Product" style="text;html=1;align=center;verticalAlign=middle;resizable=0;points=[];autosize=1;strokeColor=none;fillColor=none;" vertex="1" parent="1">
          <mxGeometry x="400" y="45" width="110" height="30" as="geometry" />
        </mxCell>
        <mxCell id="VZrK6yZqh-CEWG65we2a-13" style="edgeStyle=orthogonalEdgeStyle;rounded=0;orthogonalLoop=1;jettySize=auto;html=1;entryX=0.5;entryY=0;entryDx=0;entryDy=0;" edge="1" parent="1" source="VZrK6yZqh-CEWG65we2a-11" target="VZrK6yZqh-CEWG65we2a-12">
          <mxGeometry relative="1" as="geometry" />
        </mxCell>
        <mxCell id="VZrK6yZqh-CEWG65we2a-14" value="Get all covered products&amp;nbsp;" style="edgeLabel;html=1;align=center;verticalAlign=middle;resizable=0;points=[];" vertex="1" connectable="0" parent="VZrK6yZqh-CEWG65we2a-13">
          <mxGeometry x="-0.2" y="-1" relative="1" as="geometry">
            <mxPoint as="offset" />
          </mxGeometry>
        </mxCell>
        <mxCell id="VZrK6yZqh-CEWG65we2a-11" value="Installed Product" style="rounded=0;whiteSpace=wrap;html=1;" vertex="1" parent="1">
          <mxGeometry x="270" y="280" width="120" height="60" as="geometry" />
        </mxCell>
        <mxCell id="VZrK6yZqh-CEWG65we2a-19" style="edgeStyle=orthogonalEdgeStyle;rounded=0;orthogonalLoop=1;jettySize=auto;html=1;entryX=0.5;entryY=0;entryDx=0;entryDy=0;" edge="1" parent="1" source="VZrK6yZqh-CEWG65we2a-12" target="VZrK6yZqh-CEWG65we2a-18">
          <mxGeometry relative="1" as="geometry" />
        </mxCell>
        <mxCell id="VZrK6yZqh-CEWG65we2a-20" value="Get all Service Contracts" style="edgeLabel;html=1;align=center;verticalAlign=middle;resizable=0;points=[];" vertex="1" connectable="0" parent="VZrK6yZqh-CEWG65we2a-19">
          <mxGeometry x="-0.52" relative="1" as="geometry">
            <mxPoint y="8" as="offset" />
          </mxGeometry>
        </mxCell>
        <mxCell id="VZrK6yZqh-CEWG65we2a-12" value="Covered Products" style="rounded=0;whiteSpace=wrap;html=1;" vertex="1" parent="1">
          <mxGeometry x="270" y="410" width="120" height="60" as="geometry" />
        </mxCell>
        <mxCell id="VZrK6yZqh-CEWG65we2a-15" value="Get list of CPs related to IP" style="text;html=1;align=center;verticalAlign=middle;resizable=0;points=[];autosize=1;strokeColor=none;fillColor=none;" vertex="1" parent="1">
          <mxGeometry x="410" y="425" width="170" height="30" as="geometry" />
        </mxCell>
        <mxCell id="VZrK6yZqh-CEWG65we2a-22" style="edgeStyle=orthogonalEdgeStyle;rounded=0;orthogonalLoop=1;jettySize=auto;html=1;" edge="1" parent="1" source="VZrK6yZqh-CEWG65we2a-18">
          <mxGeometry relative="1" as="geometry">
            <mxPoint x="330" y="660" as="targetPoint" />
          </mxGeometry>
        </mxCell>
        <mxCell id="VZrK6yZqh-CEWG65we2a-23" value="Choose Service Contract&amp;nbsp;" style="edgeLabel;html=1;align=center;verticalAlign=middle;resizable=0;points=[];" vertex="1" connectable="0" parent="VZrK6yZqh-CEWG65we2a-22">
          <mxGeometry x="-0.1802" y="-4" relative="1" as="geometry">
            <mxPoint as="offset" />
          </mxGeometry>
        </mxCell>
        <mxCell id="VZrK6yZqh-CEWG65we2a-18" value="Service Contracts" style="rounded=0;whiteSpace=wrap;html=1;" vertex="1" parent="1">
          <mxGeometry x="270" y="520" width="120" height="60" as="geometry" />
        </mxCell>
        <mxCell id="VZrK6yZqh-CEWG65we2a-21" value="Get list of current/active service&lt;div&gt;contracts&lt;/div&gt;" style="text;html=1;align=center;verticalAlign=middle;resizable=0;points=[];autosize=1;strokeColor=none;fillColor=none;" vertex="1" parent="1">
          <mxGeometry x="414" y="530" width="190" height="40" as="geometry" />
        </mxCell>
        <mxCell id="VZrK6yZqh-CEWG65we2a-27" style="edgeStyle=orthogonalEdgeStyle;rounded=0;orthogonalLoop=1;jettySize=auto;html=1;entryX=0.5;entryY=0;entryDx=0;entryDy=0;" edge="1" parent="1" source="VZrK6yZqh-CEWG65we2a-24" target="VZrK6yZqh-CEWG65we2a-26">
          <mxGeometry relative="1" as="geometry" />
        </mxCell>
        <mxCell id="VZrK6yZqh-CEWG65we2a-24" value="Update Service Contract In IP" style="rounded=0;whiteSpace=wrap;html=1;" vertex="1" parent="1">
          <mxGeometry x="270" y="660" width="120" height="60" as="geometry" />
        </mxCell>
        <mxCell id="VZrK6yZqh-CEWG65we2a-25" value="Get the service max which has recent&amp;nbsp;&lt;div&gt;End Date&lt;/div&gt;" style="text;html=1;align=center;verticalAlign=middle;resizable=0;points=[];autosize=1;strokeColor=none;fillColor=none;" vertex="1" parent="1">
          <mxGeometry x="410" y="600" width="230" height="40" as="geometry" />
        </mxCell>
        <mxCell id="VZrK6yZqh-CEWG65we2a-26" value="Stop" style="ellipse;whiteSpace=wrap;html=1;" vertex="1" parent="1">
          <mxGeometry x="270" y="760" width="120" height="80" as="geometry" />
        </mxCell>
      </root>
    </mxGraphModel>
  </diagram>
</mxfile>
